<svg xmlns="http://www.w3.org/2000/svg" xmlns:xlink="http://www.w3.org/1999/xlink" width="500" zoomAndPan="magnify" viewBox="0 0 375 374.999991" height="500" preserveAspectRatio="xMidYMid meet" version="1.0"><defs><g/><clipPath id="id1"><path d="M 230 153 L 262.5 153 L 262.5 195 L 230 195 Z M 230 153 " clip-rule="nonzero"/></clipPath><clipPath id="id2"><path d="M 112.5 126 L 140 126 L 140 161 L 112.5 161 Z M 112.5 126 " clip-rule="nonzero"/></clipPath><clipPath id="id3"><path d="M 231 122.132812 L 260 122.132812 L 260 159 L 231 159 Z M 231 122.132812 " clip-rule="nonzero"/></clipPath><clipPath id="id4"><path d="M 80.5625 180.425781 L 94.0625 180.425781 L 94.0625 193.925781 L 80.5625 193.925781 Z M 80.5625 180.425781 " clip-rule="nonzero"/></clipPath><clipPath id="id5"><path d="M 277.03125 180.425781 L 290.53125 180.425781 L 290.53125 193.925781 L 277.03125 193.925781 Z M 277.03125 180.425781 " clip-rule="nonzero"/></clipPath></defs><g fill="#000000" fill-opacity="1"><g transform="translate(78.444632, 141.766878)"><g><path d="M -3.28125 15.136719 C -4.148438 19.371094 -5.8125 27.5 -6.289062 30.683594 C -6.378906 31.300781 -6.042969 31.722656 -5.527344 31.792969 C -3.203125 32.160156 1.21875 32.785156 3.625 32.925781 C 4.601562 32.984375 5.046875 31.839844 4.3125 31.125 C 1.40625 28.09375 0.480469 25.367188 1.746094 19.203125 C 2.628906 14.902344 4.085938 11.566406 6.152344 11.988281 L 6.523438 12.066406 C 8.253906 12.417969 8.171875 14.875 7.546875 18.097656 C 7.074219 20.578125 6.273438 23.269531 5.003906 25.164062 C 4.488281 25.796875 4.667969 26.46875 5.34375 26.609375 L 8.324219 27.21875 C 8.933594 27.34375 9.492188 26.859375 9.582031 26.242188 C 9.90625 23.804688 10.390625 20.761719 10.890625 18.324219 C 11.597656 14.871094 12.546875 13.335938 13.730469 13.578125 L 13.902344 13.613281 C 15.5625 13.953125 15.730469 16.5625 14.988281 20.1875 C 13.945312 25.265625 12.269531 28.453125 9.71875 30.222656 C 8.820312 30.816406 8.859375 31.847656 9.847656 32.015625 C 11.648438 32.347656 14.925781 32.878906 16.816406 33.125 C 17.476562 33.191406 17.925781 32.894531 18.089844 32.257812 C 18.792969 29.507812 19.871094 24.257812 20.722656 20.09375 C 21.410156 16.738281 22.808594 9.757812 23.058594 8.007812 C 23.152344 7.390625 22.945312 6.855469 22.347656 6.664062 C 16.511719 4.832031 7.40625 2.613281 0.890625 1.171875 C 0.246094 1.039062 -0.265625 1.464844 -0.4375 2.132812 C -0.941406 4.078125 -2.578125 11.714844 -3.28125 15.136719 Z M -3.28125 15.136719 "/></g></g></g><g fill="#000000" fill-opacity="1"><g transform="translate(70.824488, 179.481235)"><g><path d="M 0.84375 5.886719 C 1 6.773438 1.421875 8.804688 1.71875 9.910156 C 1.898438 10.546875 2.46875 11.007812 3.109375 10.863281 C 5.359375 10.261719 9.78125 9.460938 12.050781 9.207031 C 14.527344 8.917969 16.148438 8.953125 16.285156 9.738281 C 16.449219 10.691406 14.875 11.738281 12.90625 12.921875 C 11.359375 13.925781 9.453125 15.273438 7.933594 16.414062 C 6.027344 17.761719 5.101562 18.902344 5.425781 20.777344 C 5.738281 22.582031 6.910156 23.46875 9.292969 24.070312 C 11.03125 24.578125 13.320312 25.234375 15.003906 25.644531 C 17.332031 26.117188 19.257812 26.484375 19.421875 27.4375 C 19.558594 28.222656 18.082031 28.828125 15.6875 29.382812 C 13.394531 29.921875 8.933594 30.695312 6.578125 30.859375 C 5.917969 30.902344 5.542969 31.5625 5.585938 32.222656 C 5.679688 33.363281 5.980469 35.523438 6.128906 36.375 C 6.292969 37.328125 6.652344 39.195312 7.003906 40.398438 C 7.175781 41 7.730469 41.359375 8.371094 41.210938 C 16.078125 39.527344 24.652344 36.566406 29.550781 34.664062 C 30.074219 34.433594 30.375 33.960938 30.34375 33.371094 C 30.253906 32.050781 29.898438 29.796875 29.730469 28.808594 C 29.546875 27.753906 29.140625 25.824219 28.832031 24.648438 C 28.546875 23.609375 28.140625 22.875 27.121094 22.664062 C 25.433594 22.257812 22.589844 21.835938 20.308594 21.425781 C 17.367188 20.847656 15.015625 20.238281 14.832031 19.183594 C 14.648438 18.125 16.601562 16.628906 19.3125 15.070312 C 21.222656 13.933594 23.796875 12.609375 25.179688 11.667969 C 26.128906 11.082031 26.203125 10.300781 26.125 9.226562 C 26.046875 7.976562 25.753906 5.886719 25.574219 4.828125 C 25.402344 3.84375 24.949219 1.640625 24.644531 0.5 C 24.484375 -0.0351562 24.03125 -0.410156 23.464844 -0.453125 C 18.246094 -0.601562 9.140625 -0.496094 1.316406 0.507812 C 0.664062 0.585938 0.261719 1.113281 0.300781 1.738281 C 0.378906 2.988281 0.679688 4.933594 0.84375 5.886719 Z M 0.84375 5.886719 "/></g></g></g><g fill="#000000" fill-opacity="1"><g transform="translate(80.724162, 226.574939)"><g><path d="M 9.300781 15.425781 C 14.679688 24.011719 21.433594 28.34375 28.316406 24.03125 C 34.9375 19.882812 35.746094 10.890625 30.332031 2.246094 C 24.917969 -6.394531 16.472656 -9.585938 9.851562 -5.4375 C 2.96875 -1.125 3.921875 6.84375 9.300781 15.425781 Z M 14.691406 12.050781 C 12.503906 8.5625 12.328125 4.960938 15.640625 2.886719 C 18.746094 0.941406 22.703125 2.050781 24.941406 5.625 C 27.183594 9.199219 26.453125 13.246094 23.347656 15.191406 C 20.039062 17.265625 16.875 15.535156 14.691406 12.050781 Z M 14.691406 12.050781 "/></g></g></g><g fill="#000000" fill-opacity="1"><g transform="translate(103.201874, 260.245253)"><g><path d="M 12 9.957031 C 12.75 10.566406 14.625 12.042969 15.628906 12.722656 C 16.210938 13.105469 16.929688 12.933594 17.269531 12.40625 C 20 8.210938 23.097656 3.246094 25.207031 0.148438 C 26.003906 -1.164062 27.246094 -1.265625 28.214844 -0.484375 C 30.496094 1.367188 31.597656 4.398438 31.890625 6.507812 C 31.964844 7.457031 32.914062 7.824219 33.523438 7.074219 C 34.273438 6.035156 37.042969 2.40625 37.980469 1.03125 C 38.390625 0.472656 38.257812 -0.0820312 37.796875 -0.5 C 35.410156 -2.660156 29.957031 -7.082031 27.355469 -9.191406 C 24.402344 -11.589844 19.273438 -15.746094 16.667969 -17.640625 C 16.164062 -18.003906 15.597656 -18.019531 15.132812 -17.503906 C 13.980469 -16.300781 11.0625 -12.925781 10.1875 -11.902344 C 9.550781 -11.171875 10.085938 -10.292969 11.03125 -10.414062 C 13.179688 -10.542969 16.746094 -9.832031 18.757812 -8.199219 C 19.722656 -7.414062 19.851562 -6.199219 18.730469 -5.148438 C 16.117188 -2.417969 11.964844 1.605469 8.382812 5.195312 C 7.9375 5.636719 7.9375 6.347656 8.429688 6.839844 C 9.304688 7.679688 11.222656 9.324219 12 9.957031 Z M 12 9.957031 "/></g></g></g><g fill="#000000" fill-opacity="1"><g transform="translate(130.125723, 280.431719)"><g><path d="M 5.503906 2.976562 C 6.339844 3.398438 8.222656 4.273438 9.207031 4.695312 C 9.792969 4.914062 10.445312 4.699219 10.726562 4.144531 C 14.28125 -2.886719 17.890625 -11.097656 19.863281 -15.910156 C 20.082031 -16.421875 19.867188 -16.992188 19.375 -17.320312 C 18.617188 -17.816406 17.355469 -18.535156 16.613281 -18.910156 C 15.902344 -19.269531 14.453125 -19.925781 13.542969 -20.269531 C 12.972656 -20.441406 12.414062 -20.335938 12.117188 -19.828125 C 9.40625 -15.386719 4.9375 -7.613281 1.378906 -0.582031 C 1.097656 -0.0273438 1.328125 0.59375 1.851562 0.9375 C 2.792969 1.527344 4.640625 2.542969 5.503906 2.976562 Z M 5.503906 2.976562 "/></g></g></g><g fill="#000000" fill-opacity="1"><g transform="translate(143.768515, 288.459595)"><g><path d="M 17.46875 4.402344 C 27.332031 6.710938 35.179688 5.03125 37.027344 -2.882812 C 38.804688 -10.488281 33.046875 -17.445312 23.117188 -19.765625 C 13.1875 -22.085938 4.941406 -18.40625 3.164062 -10.796875 C 1.3125 -2.886719 7.605469 2.097656 17.46875 4.402344 Z M 18.914062 -1.789062 C 14.910156 -2.726562 12.246094 -5.160156 13.136719 -8.964844 C 13.972656 -12.53125 17.5625 -14.53125 21.667969 -13.574219 C 25.777344 -12.613281 28.109375 -9.226562 27.273438 -5.660156 C 26.386719 -1.855469 22.921875 -0.855469 18.914062 -1.789062 Z M 18.914062 -1.789062 "/></g></g></g><g fill="#000000" fill-opacity="1"><g transform="translate(183.688739, 296.781923)"><g><path d="M 28.085938 -2.980469 C 31.347656 -3.363281 32.878906 -5.457031 32.363281 -9.851562 C 31.550781 -16.472656 30.308594 -22.628906 29.375 -26.730469 C 29.273438 -27.308594 28.746094 -27.628906 28.191406 -27.636719 C 27.042969 -27.640625 25.660156 -27.546875 24.765625 -27.441406 C 23.738281 -27.320312 22.332031 -27.121094 21.210938 -26.886719 C 20.503906 -26.699219 20.058594 -26.054688 20.3125 -25.355469 C 21.398438 -22.035156 23.792969 -14.660156 21.527344 -14.394531 C 19.332031 -14.136719 12.769531 -20.816406 9.523438 -23.878906 C 8.40625 -24.792969 7.566406 -25.113281 6.246094 -25.097656 C 5.0625 -25.097656 3.996094 -25.007812 3.34375 -24.929688 C 2.691406 -24.855469 1.148438 -24.636719 0.339844 -24.40625 C -0.230469 -24.234375 -0.636719 -23.835938 -0.601562 -23.25 C -0.589844 -18.101562 -0.0546875 -9.078125 0.828125 -1.246094 C 0.902344 -0.628906 1.46875 -0.242188 2.058594 -0.242188 C 3.347656 -0.253906 5.03125 -0.417969 5.960938 -0.523438 C 6.886719 -0.632812 9.011719 -0.917969 10.167969 -1.15625 C 10.808594 -1.335938 11.269531 -1.84375 11.078125 -2.585938 C 10.648438 -4.484375 9.855469 -7.664062 9.648438 -9.730469 C 9.464844 -11.585938 9.816406 -12.742188 10.78125 -12.855469 C 14.316406 -13.269531 21.050781 -2.15625 28.085938 -2.980469 Z M 28.085938 -2.980469 "/></g></g></g><g fill="#000000" fill-opacity="1"><g transform="translate(222.424562, 291.514003)"><g><path d="M 4.90625 -2.246094 C 6.113281 -2.84375 8.125 -3.921875 9.132812 -4.535156 C 9.519531 -4.769531 9.769531 -5.277344 9.507812 -5.804688 C 9.015625 -6.792969 8.710938 -7.878906 8.695312 -8.679688 C 8.667969 -10.058594 9.722656 -11.277344 11.519531 -12.246094 C 12.585938 -12.816406 14.042969 -13.539062 15.140625 -14.042969 C 16.953125 -14.90625 18.636719 -15.085938 19.71875 -14.15625 C 20.351562 -13.582031 21.011719 -12.714844 21.488281 -11.753906 C 21.75 -11.230469 22.308594 -11.121094 22.726562 -11.289062 C 23.792969 -11.703125 25.929688 -12.6875 26.703125 -13.070312 C 27.445312 -13.441406 29.769531 -14.671875 30.667969 -15.195312 C 31.316406 -15.59375 31.425781 -16.230469 30.824219 -16.742188 C 24.5 -22.632812 16.414062 -28.34375 10.65625 -31.695312 C 10.332031 -31.882812 9.945312 -31.882812 9.542969 -31.761719 C 8.152344 -31.222656 6.214844 -30.300781 5.039062 -29.71875 C 3.894531 -29.148438 1.988281 -28.164062 0.78125 -27.410156 C 0.441406 -27.164062 0.207031 -26.855469 0.160156 -26.484375 C -0.628906 -19.835938 -1.023438 -9.988281 -0.152344 -1.390625 C -0.0742188 -0.617188 0.511719 -0.371094 1.269531 -0.628906 C 2.183594 -0.96875 3.886719 -1.738281 4.90625 -2.246094 Z M 11.035156 -15.863281 C 9.238281 -15.050781 8.15625 -15.363281 8.066406 -16.863281 C 7.824219 -18.515625 7.707031 -20.621094 7.695312 -22.351562 C 7.730469 -23.679688 8.285156 -23.957031 9.367188 -23.179688 C 10.742188 -22.125 12.375 -20.777344 13.578125 -19.597656 C 14.671875 -18.636719 14.285156 -17.554688 12.582031 -16.632812 C 12.195312 -16.402344 11.453125 -16.035156 11.035156 -15.863281 Z M 11.035156 -15.863281 "/></g></g></g><g fill="#000000" fill-opacity="1"><g transform="translate(257.960992, 272.715681)"><g><path d="M 10.9375 -10.964844 C 13.957031 -14.058594 19.605469 -19.847656 21.726562 -22.269531 C 22.160156 -22.765625 22.105469 -23.300781 21.710938 -23.636719 C 19.929688 -25.179688 16.003906 -28.578125 14.101562 -30.046875 C 13.261719 -30.671875 12.292969 -29.976562 12.527344 -28.878906 C 13.433594 -24.757812 12.636719 -21.960938 8.386719 -17.605469 C 4.792969 -13.921875 1.871094 -12.90625 -0.109375 -14.835938 C -3.820312 -18.457031 -5.425781 -21.667969 -7.351562 -25.1875 C -7.675781 -25.84375 -8.484375 -25.859375 -9.039062 -25.386719 C -9.984375 -24.566406 -10.902344 -23.675781 -11.769531 -22.785156 C -13.050781 -21.472656 -13.96875 -20.535156 -15.074219 -19.199219 C -15.460938 -18.707031 -15.601562 -18.167969 -15.203125 -17.683594 C -11.285156 -12.988281 -4.820312 -6.199219 -0.117188 -1.464844 C 0.355469 -1.007812 1.011719 -1.089844 1.519531 -1.558594 C 2.996094 -2.921875 8.5 -8.464844 10.9375 -10.964844 Z M 10.9375 -10.964844 "/></g></g></g><g fill="#000000" fill-opacity="1"><g transform="translate(283.522604, 245.570675)"><g><path d="M 8.328125 -16.746094 C 10.175781 -20.617188 12.101562 -26.824219 12.460938 -29.753906 C 12.5 -30.230469 12.273438 -30.722656 11.804688 -30.945312 C 9.421875 -31.890625 7.023438 -32.882812 4.625 -33.796875 C 3.488281 -34.222656 2.792969 -33.328125 3.304688 -32.472656 C 5.21875 -28.457031 4.632812 -24.332031 2.59375 -20.058594 C 0.449219 -15.5625 -2.777344 -12.96875 -6.242188 -14.621094 C -9.832031 -16.332031 -10.664062 -20.367188 -8.582031 -24.734375 C -6.617188 -28.851562 -3.898438 -30.699219 -0.914062 -31.496094 C -0.0234375 -31.761719 0.148438 -32.597656 -0.511719 -33.066406 C -1.609375 -33.894531 -4.722656 -35.800781 -5.773438 -36.570312 C -6.273438 -36.886719 -6.847656 -36.96875 -7.335938 -36.585938 C -9.859375 -34.421875 -12.347656 -31.050781 -14.207031 -27.148438 C -18.746094 -17.632812 -17.019531 -8.804688 -9.96875 -5.441406 C -2.632812 -1.945312 3.792969 -7.230469 8.328125 -16.746094 Z M 8.328125 -16.746094 "/></g></g></g><g fill="#000000" fill-opacity="1"><g transform="translate(299.315863, 210.559889)"><g><path d="M 2.242188 -16.480469 C 3.378906 -26.371094 0.4375 -32.589844 -7.117188 -33.457031 C -11.683594 -33.980469 -16.238281 -34.019531 -19.460938 -33.832031 C -20.023438 -33.792969 -20.445312 -33.457031 -20.578125 -32.914062 C -20.792969 -31.933594 -21.097656 -29.878906 -21.199219 -29.019531 C -21.292969 -28.195312 -21.496094 -25.820312 -21.507812 -24.8125 C -21.507812 -24.21875 -21.097656 -23.546875 -20.320312 -23.628906 C -16.734375 -23.949219 -12.609375 -24.136719 -9.046875 -23.621094 C -6.242188 -23.195312 -3.683594 -20.953125 -4.113281 -17.210938 C -4.542969 -13.464844 -7.375 -11.84375 -10.375 -12.082031 C -13.992188 -12.394531 -18.046875 -13.453125 -21.359375 -14.597656 C -22.09375 -14.855469 -22.648438 -14.257812 -22.78125 -13.71875 C -23 -12.734375 -23.332031 -10.441406 -23.425781 -9.617188 C -23.53125 -8.722656 -23.734375 -6.625 -23.714844 -5.613281 C -23.707031 -5.054688 -23.378906 -4.597656 -22.839844 -4.433594 C -19.765625 -3.628906 -15.300781 -2.523438 -10.726562 -2.03125 C -3.171875 -1.164062 1.101562 -6.554688 2.242188 -16.480469 Z M 2.242188 -16.480469 "/></g></g></g><g fill="#000000" fill-opacity="1"><g transform="translate(302.80404, 173.075769)"><g><path d="M -1.175781 -6.429688 C -1.410156 -7.546875 -1.855469 -9.5 -2.199219 -10.628906 C -2.445312 -11.285156 -3.050781 -11.652344 -3.679688 -11.449219 C -4.863281 -11.023438 -6.910156 -9.675781 -8.558594 -9.292969 C -9.332031 -9.09375 -9.957031 -9.386719 -10.019531 -10.011719 C -11.035156 -20.394531 -16.007812 -28.746094 -23.144531 -27.242188 C -27.609375 -26.304688 -29.40625 -20.734375 -27.5 -11.667969 C -26.582031 -7.304688 -25.136719 -1.105469 -24.308594 2.003906 C -24.160156 2.539062 -23.667969 2.859375 -23.078125 2.804688 C -18.085938 2.355469 -8.832031 0.832031 -1.28125 -0.71875 C -0.707031 -0.839844 -0.367188 -1.40625 -0.417969 -1.996094 C -0.542969 -2.921875 -0.855469 -4.90625 -1.175781 -6.429688 Z M -14.566406 -9.972656 C -14.378906 -8.914062 -14.652344 -8.1875 -15.515625 -7.933594 C -16.613281 -7.597656 -17.828125 -7.34375 -18.832031 -7.238281 C -19.625 -7.140625 -20.304688 -7.527344 -20.574219 -8.460938 C -20.839844 -9.394531 -21.066406 -10.300781 -21.316406 -11.484375 C -22.234375 -15.847656 -21.664062 -17.839844 -20.074219 -18.175781 C -18.179688 -18.574219 -15.59375 -16.363281 -14.566406 -9.972656 Z M -14.566406 -9.972656 "/></g></g></g><path fill="#8907af" d="M 199.441406 237.132812 C 211.542969 239.191406 224.003906 239.097656 236.070312 236.851562 C 240.199219 236.082031 244.308594 235.054688 248.117188 233.28125 C 250.339844 232.246094 252.488281 230.929688 254.058594 229.046875 C 257.363281 225.09375 257.527344 219.109375 255.285156 214.464844 C 253.046875 209.824219 248.761719 206.425781 244.085938 204.265625 C 239.410156 202.101562 234.316406 201.046875 228.757812 200.171875 C 228.113281 201.863281 227.46875 203.558594 226.824219 205.25 C 233.746094 206.625 240.929688 208.355469 246.289062 212.953125 C 247.886719 214.324219 249.320312 215.980469 250.035156 217.964844 C 250.75 219.949219 250.660156 222.308594 249.425781 224.023438 C 248.742188 224.976562 247.757812 225.675781 246.757812 226.289062 C 238.988281 231.058594 229.453125 231.746094 220.339844 231.878906 C 213.71875 231.972656 207.09375 231.839844 200.5 231.5625 C 199.121094 232.875 198.726562 235.113281 199.441406 237.132812 " fill-opacity="1" fill-rule="nonzero"/><path fill="#fe94b4" d="M 143.417969 188.683594 C 140.75 190.957031 137.65625 192.824219 134.246094 193.628906 C 130.835938 194.433594 127.078125 194.101562 124.085938 192.269531 C 119.179688 189.269531 117.292969 183.027344 116.996094 177.273438 C 116.648438 170.601562 117.914062 163.851562 120.40625 157.511719 C 119.425781 157.25 118.449219 156.984375 117.46875 156.722656 C 115.519531 160.070312 114.6875 163.945312 114.089844 167.773438 C 113.425781 172.054688 113.019531 176.417969 113.550781 180.71875 C 114.078125 185.019531 115.605469 189.28125 118.4375 192.558594 C 121.753906 196.394531 126.8125 198.660156 131.878906 198.570312 C 136.945312 198.484375 141.921875 196.046875 145.105469 192.097656 C 144.640625 190.945312 144.179688 189.789062 143.417969 188.683594 " fill-opacity="1" fill-rule="nonzero"/><path fill="#8907af" d="M 149.921875 205.015625 C 142.214844 204.488281 134.535156 206.867188 127.703125 210.480469 C 124.683594 212.078125 121.753906 213.953125 119.476562 216.496094 C 117.195312 219.042969 115.605469 222.335938 115.632812 225.753906 C 115.679688 231.050781 119.644531 235.722656 124.421875 238 C 129.203125 240.273438 134.667969 240.574219 139.957031 240.46875 C 149.257812 240.285156 158.53125 238.976562 167.523438 236.582031 C 168.164062 236.414062 168.863281 236.195312 169.210938 235.628906 C 169.476562 235.203125 169.476562 234.667969 169.425781 234.167969 C 169.222656 232.265625 168.308594 230.441406 167.078125 229.265625 C 157.164062 232.808594 146.566406 234.414062 136.046875 233.964844 C 133.511719 233.859375 130.925781 233.617188 128.625 232.558594 C 126.320312 231.496094 124.320312 229.472656 123.914062 226.964844 C 123.347656 223.5 125.878906 220.269531 128.699219 218.175781 C 135.605469 213.054688 144.578125 211.90625 153.121094 210.984375 C 152.035156 208.859375 150.726562 206.847656 149.921875 205.015625 " fill-opacity="1" fill-rule="nonzero"/><g clip-path="url(#id1)"><path fill="#fe94b4" d="M 252.910156 155.128906 C 255.691406 160.535156 257.730469 166.515625 257.375 172.582031 C 257.019531 178.652344 253.90625 184.800781 248.503906 187.578125 C 243.238281 190.28125 236.78125 189.410156 231.207031 187.453125 C 231.117188 189.199219 231.027344 190.945312 230.941406 192.691406 C 236.367188 194.976562 242.664062 195.222656 248.179688 193.164062 C 253.699219 191.109375 258.355469 186.730469 260.554688 181.257812 C 262.367188 176.761719 262.507812 171.703125 261.554688 166.949219 C 260.597656 162.195312 258.585938 157.710938 256.210938 153.488281 C 255.023438 154.535156 253.496094 155.1875 252.910156 155.128906 " fill-opacity="1" fill-rule="nonzero"/></g><path fill="#9a6aec" d="M 139.382812 152.695312 C 139.824219 167.785156 140.3125 182.65625 145.304688 196.898438 C 150.296875 211.140625 160.601562 224.339844 174.960938 228.921875 C 179.90625 230.5 185.15625 231.011719 190.335938 230.714844 C 199.050781 230.210938 207.625 227.394531 214.945312 222.632812 C 217.988281 220.652344 220.835938 218.324219 223.175781 215.542969 C 226.554688 211.523438 228.792969 206.65625 230.46875 201.675781 C 236.21875 184.558594 235.714844 165.230469 232.675781 147.429688 L 139.382812 152.695312 " fill-opacity="1" fill-rule="nonzero"/><g clip-path="url(#id2)"><path fill="#ffffff" d="M 139.464844 143.898438 C 138.46875 150.046875 133.007812 155.179688 126.050781 155.734375 C 125 157.167969 125.390625 159.648438 123.777344 160.386719 C 123.367188 160.570312 122.902344 160.589844 122.453125 160.601562 C 120.929688 160.632812 119.367188 160.589844 117.949219 160.023438 C 116.535156 159.453125 115.28125 158.265625 115.03125 156.761719 C 114.789062 155.300781 115.496094 153.871094 116.152344 152.542969 C 116.355469 152.132812 116.554688 151.710938 116.589844 151.253906 C 116.613281 150.859375 116.507812 150.460938 116.386719 150.082031 C 115.941406 148.738281 115.253906 147.492188 114.675781 146.199219 C 113.242188 142.984375 112.492188 139.390625 113.046875 135.914062 C 113.589844 132.4375 115.546875 129.105469 118.585938 127.335938 C 119.300781 126.917969 120.117188 126.582031 120.9375 126.699219 C 121.546875 126.789062 122.128906 127.207031 122.359375 127.75 C 122.441406 127.941406 122.480469 128.152344 122.460938 128.367188 C 122.867188 127.960938 123.347656 127.636719 123.871094 127.398438 C 124.808594 126.976562 125.871094 126.835938 126.878906 127.039062 C 128.300781 127.328125 129.566406 128.292969 130.269531 129.507812 C 130.347656 129.632812 130.414062 129.761719 130.472656 129.890625 C 130.796875 129.867188 131.125 129.894531 131.441406 129.976562 C 132.257812 130.164062 133.007812 130.652344 133.476562 131.34375 C 134.132812 132.308594 134.238281 133.625 133.738281 134.679688 C 132.976562 136.285156 131.140625 137.003906 129.734375 138.085938 C 128.964844 138.679688 128.304688 139.402344 127.789062 140.222656 C 127.308594 140.984375 126.949219 141.914062 127.234375 142.765625 C 127.464844 143.453125 128.082031 143.953125 128.753906 144.222656 C 130.355469 144.871094 132.316406 144.328125 133.472656 143.042969 C 134.628906 141.757812 134.976562 139.84375 134.5 138.183594 C 134.3125 137.53125 134.007812 136.851562 134.214844 136.207031 C 134.46875 135.417969 135.457031 135.039062 136.261719 135.242188 C 137.070312 135.445312 137.699219 136.074219 138.171875 136.761719 C 139.574219 138.804688 139.863281 141.453125 139.464844 143.898438 " fill-opacity="1" fill-rule="nonzero"/></g><g clip-path="url(#id3)"><path fill="#ffffff" d="M 258.144531 155.101562 C 257.117188 156.550781 255.597656 157.609375 253.949219 158.261719 C 253.089844 158.597656 252.148438 158.835938 251.246094 158.640625 C 250.023438 158.375 249.089844 157.367188 248.480469 156.273438 C 247.871094 155.179688 247.503906 153.964844 246.78125 152.222656 C 242.875 152.992188 238.636719 151.839844 235.65625 149.199219 C 232.675781 146.554688 231.019531 142.480469 231.308594 138.507812 C 231.378906 137.578125 231.761719 136.441406 232.683594 136.355469 C 233.285156 136.300781 233.8125 136.746094 234.1875 137.214844 C 235.074219 138.332031 235.554688 139.742188 236.503906 140.804688 C 237.457031 141.867188 239.230469 142.464844 240.28125 141.496094 C 240.722656 141.089844 240.9375 140.488281 241.050781 139.894531 C 241.4375 137.84375 240.722656 135.621094 239.21875 134.179688 C 237.695312 132.730469 235.578125 132.140625 233.726562 131.15625 C 233.085938 130.8125 232.421875 130.355469 232.234375 129.65625 C 232.011719 128.820312 232.582031 127.933594 233.335938 127.507812 C 233.722656 127.289062 234.144531 127.167969 234.589844 127.085938 C 235.019531 127.007812 235.472656 126.972656 235.9375 126.929688 C 235.996094 126.835938 236.050781 126.742188 236.109375 126.640625 C 236.597656 125.742188 236.976562 124.550781 238.472656 123.988281 C 239.085938 123.757812 239.96875 123.605469 240.933594 123.6875 C 241.363281 123.71875 241.804688 123.800781 242.253906 123.9375 C 242.347656 123.78125 242.453125 123.636719 242.574219 123.503906 C 243.382812 122.59375 244.71875 122.195312 245.949219 122.320312 C 247.359375 122.464844 248.652344 123.191406 249.792969 124.039062 C 255.914062 128.597656 258.421875 137.453125 255.734375 144.734375 C 257.261719 146.269531 258.855469 147.929688 259.300781 150.050781 C 259.664062 151.792969 259.167969 153.652344 258.144531 155.101562 " fill-opacity="1" fill-rule="nonzero"/></g><path fill="#ffffff" d="M 176.550781 181.203125 C 176.550781 189.582031 171.441406 196.375 165.140625 196.375 C 164.492188 196.375 163.859375 196.300781 163.238281 196.164062 C 157.84375 194.960938 153.730469 188.71875 153.730469 181.203125 C 153.730469 172.824219 158.839844 166.03125 165.140625 166.03125 C 167.917969 166.03125 170.46875 167.351562 172.445312 169.550781 C 174.953125 172.332031 176.550781 176.519531 176.550781 181.203125 " fill-opacity="1" fill-rule="nonzero"/><path fill="#000000" d="M 176.550781 181.203125 C 176.550781 189.582031 171.441406 196.375 165.140625 196.375 C 164.492188 196.375 163.859375 196.300781 163.238281 196.164062 C 160.730469 193.378906 159.132812 189.191406 159.132812 184.511719 C 159.132812 182.90625 159.320312 181.359375 159.671875 179.910156 L 165.875 179.722656 L 161.859375 174.671875 C 163.953125 171.40625 167.066406 169.339844 170.542969 169.339844 C 171.191406 169.339844 171.824219 169.414062 172.445312 169.550781 C 174.953125 172.332031 176.550781 176.519531 176.550781 181.203125 " fill-opacity="1" fill-rule="nonzero"/><path fill="#ffffff" d="M 213.859375 181.203125 C 213.859375 189.582031 208.75 196.375 202.453125 196.375 C 201.804688 196.375 201.167969 196.300781 200.550781 196.164062 C 195.15625 194.960938 191.042969 188.71875 191.042969 181.203125 C 191.042969 172.824219 196.152344 166.03125 202.453125 166.03125 C 205.230469 166.03125 207.777344 167.351562 209.757812 169.550781 C 212.265625 172.332031 213.859375 176.519531 213.859375 181.203125 " fill-opacity="1" fill-rule="nonzero"/><path fill="#000000" d="M 213.859375 181.203125 C 213.859375 189.582031 208.75 196.375 202.453125 196.375 C 201.804688 196.375 201.167969 196.300781 200.550781 196.164062 C 198.039062 193.378906 196.445312 189.191406 196.445312 184.511719 C 196.445312 182.90625 196.632812 181.359375 196.980469 179.910156 L 203.1875 179.722656 L 199.171875 174.671875 C 201.265625 171.40625 204.378906 169.339844 207.855469 169.339844 C 208.503906 169.339844 209.136719 169.414062 209.757812 169.550781 C 212.265625 172.332031 213.859375 176.519531 213.859375 181.203125 " fill-opacity="1" fill-rule="nonzero"/><path fill="#9a6aec" d="M 155.652344 198.089844 C 157.808594 195.085938 161.425781 193.191406 165.121094 193.125 C 168.8125 193.058594 172.496094 194.824219 174.757812 197.746094 " fill-opacity="1" fill-rule="nonzero"/><path fill="#000000" d="M 155.652344 198.441406 C 155.578125 198.441406 155.507812 198.417969 155.445312 198.375 C 155.285156 198.257812 155.25 198.039062 155.363281 197.878906 C 157.582031 194.796875 161.320312 192.839844 165.113281 192.773438 C 168.902344 192.707031 172.710938 194.527344 175.039062 197.53125 C 175.15625 197.683594 175.128906 197.90625 174.972656 198.023438 C 174.820312 198.144531 174.601562 198.117188 174.480469 197.960938 C 172.285156 195.132812 168.695312 193.40625 165.125 193.476562 C 161.550781 193.542969 158.027344 195.386719 155.9375 198.292969 C 155.867188 198.390625 155.757812 198.441406 155.652344 198.441406 " fill-opacity="1" fill-rule="nonzero"/><path fill="#9a6aec" d="M 194.53125 199.234375 C 196.855469 196.65625 200.40625 195.238281 203.867188 195.507812 C 207.324219 195.78125 210.613281 197.738281 212.503906 200.652344 " fill-opacity="1" fill-rule="nonzero"/><path fill="#000000" d="M 212.503906 201.003906 C 212.390625 201.003906 212.277344 200.949219 212.210938 200.84375 C 210.382812 198.035156 207.175781 196.125 203.839844 195.859375 C 200.5 195.597656 197.035156 196.984375 194.792969 199.472656 C 194.664062 199.617188 194.4375 199.628906 194.296875 199.5 C 194.152344 199.367188 194.140625 199.144531 194.269531 199 C 196.65625 196.351562 200.34375 194.878906 203.894531 195.160156 C 207.445312 195.4375 210.859375 197.46875 212.800781 200.460938 C 212.90625 200.625 212.859375 200.839844 212.695312 200.949219 C 212.636719 200.984375 212.570312 201.003906 212.503906 201.003906 " fill-opacity="1" fill-rule="nonzero"/><path fill="#ffffff" d="M 183.347656 218.554688 C 181.808594 218.554688 180.257812 218.425781 178.738281 218.171875 C 178.492188 218.132812 178.242188 218.089844 177.96875 218.03125 C 175.910156 217.636719 173.890625 216.996094 171.988281 216.144531 C 171.203125 215.792969 170.457031 215.410156 169.773438 215 C 169.519531 214.851562 169.289062 214.703125 169.0625 214.554688 C 166.679688 212.988281 165.023438 211.089844 164.136719 208.910156 C 163.484375 207.304688 163.582031 205.835938 164.414062 204.773438 C 165.109375 203.890625 166.207031 203.425781 167.683594 203.382812 C 167.785156 203.382812 167.894531 203.378906 168 203.378906 C 169.140625 203.378906 170.363281 203.546875 171.726562 203.894531 C 171.976562 203.960938 172.214844 204.023438 172.449219 204.089844 C 173.300781 204.332031 174.132812 204.609375 174.933594 204.878906 C 175.289062 204.996094 175.640625 205.113281 175.996094 205.226562 C 177.105469 205.589844 178.203125 205.898438 179.261719 206.148438 L 179.285156 206.15625 C 179.488281 206.203125 179.695312 206.25 179.902344 206.292969 L 179.929688 206.296875 C 182.015625 206.757812 184.011719 206.988281 185.855469 206.988281 C 186.019531 206.988281 186.179688 206.988281 186.339844 206.984375 C 186.570312 206.980469 186.78125 206.972656 186.988281 206.960938 C 188.292969 206.894531 189.5625 206.699219 190.753906 206.390625 C 191.527344 206.1875 192.289062 205.933594 193.097656 205.664062 C 193.542969 205.515625 193.992188 205.363281 194.445312 205.222656 C 194.679688 205.148438 194.917969 205.078125 195.152344 205.011719 C 195.519531 204.902344 195.890625 204.808594 196.261719 204.722656 C 197.125 204.527344 197.878906 204.433594 198.574219 204.433594 C 199.273438 204.433594 199.9375 204.527344 200.546875 204.71875 C 202.390625 205.289062 203.738281 206.777344 203.980469 208.507812 C 204.277344 210.644531 202.964844 212.679688 200.277344 214.242188 C 199.585938 214.644531 198.867188 215.015625 198.152344 215.347656 C 197.933594 215.453125 197.695312 215.558594 197.453125 215.664062 C 194.828125 216.792969 191.84375 217.585938 188.066406 218.160156 C 187.832031 218.195312 187.589844 218.230469 187.347656 218.265625 L 187.03125 218.308594 C 185.816406 218.472656 184.578125 218.554688 183.347656 218.554688 " fill-opacity="1" fill-rule="nonzero"/><path fill="#000000" d="M 168 201.617188 C 167.875 201.617188 167.753906 201.617188 167.632812 201.621094 C 165.613281 201.675781 164.066406 202.367188 163.03125 203.675781 C 161.804688 205.242188 161.617188 207.390625 162.507812 209.582031 C 163.527344 212.09375 165.410156 214.265625 168.09375 216.03125 C 168.34375 216.195312 168.605469 216.359375 168.875 216.519531 C 169.617188 216.960938 170.425781 217.378906 171.273438 217.757812 C 173.289062 218.660156 175.433594 219.339844 177.636719 219.765625 C 177.929688 219.824219 178.199219 219.875 178.460938 219.914062 C 180.070312 220.183594 181.714844 220.320312 183.347656 220.320312 C 184.65625 220.320312 185.976562 220.230469 187.265625 220.058594 L 187.582031 220.015625 C 187.84375 219.976562 188.089844 219.941406 188.335938 219.902344 C 192.257812 219.308594 195.378906 218.476562 198.152344 217.28125 C 198.386719 217.183594 198.632812 217.070312 198.902344 216.945312 C 199.667969 216.589844 200.429688 216.195312 201.164062 215.765625 C 205.675781 213.144531 205.960938 209.941406 205.726562 208.265625 C 205.390625 205.859375 203.558594 203.808594 201.0625 203.035156 C 200.292969 202.792969 199.453125 202.671875 198.574219 202.671875 C 197.746094 202.671875 196.867188 202.777344 195.878906 203 C 195.46875 203.09375 195.0625 203.199219 194.667969 203.3125 C 194.410156 203.386719 194.164062 203.460938 193.917969 203.539062 C 193.445312 203.6875 192.980469 203.84375 192.535156 203.992188 C 191.757812 204.25 191.023438 204.496094 190.3125 204.683594 C 189.234375 204.960938 188.085938 205.136719 186.894531 205.199219 C 186.667969 205.210938 186.496094 205.21875 186.339844 205.21875 L 186.300781 205.21875 C 186.152344 205.222656 186.003906 205.222656 185.855469 205.222656 C 184.136719 205.222656 182.269531 205.007812 180.304688 204.574219 L 180.277344 204.570312 L 180.25 204.5625 C 180.082031 204.53125 179.894531 204.488281 179.699219 204.441406 L 179.660156 204.433594 C 178.648438 204.191406 177.597656 203.894531 176.539062 203.550781 C 176.191406 203.4375 175.84375 203.320312 175.496094 203.207031 C 174.671875 202.929688 173.820312 202.644531 172.933594 202.394531 C 172.679688 202.320312 172.433594 202.253906 172.183594 202.191406 C 170.648438 201.800781 169.289062 201.617188 168 201.617188 Z M 168 205.144531 C 169.113281 205.144531 170.210938 205.328125 171.296875 205.605469 C 171.523438 205.664062 171.746094 205.722656 171.972656 205.789062 C 173.144531 206.121094 174.300781 206.535156 175.453125 206.90625 C 176.570312 207.269531 177.707031 207.59375 178.855469 207.867188 C 179.089844 207.921875 179.316406 207.976562 179.550781 208.023438 C 181.632812 208.480469 183.75 208.75 185.855469 208.75 C 186.03125 208.75 186.203125 208.75 186.375 208.746094 C 186.609375 208.746094 186.84375 208.734375 187.074219 208.722656 C 188.464844 208.648438 189.84375 208.449219 191.199219 208.097656 C 192.476562 207.765625 193.710938 207.300781 194.96875 206.90625 C 195.195312 206.835938 195.421875 206.769531 195.644531 206.703125 C 195.980469 206.605469 196.316406 206.519531 196.652344 206.441406 C 197.28125 206.300781 197.933594 206.199219 198.574219 206.199219 C 199.066406 206.199219 199.550781 206.257812 200.019531 206.402344 C 201.105469 206.742188 202.078125 207.625 202.234375 208.753906 C 202.476562 210.46875 200.886719 211.847656 199.390625 212.714844 C 198.75 213.089844 198.09375 213.433594 197.414062 213.746094 C 197.199219 213.847656 196.984375 213.945312 196.761719 214.039062 C 194.214844 215.136719 191.34375 215.878906 187.804688 216.414062 C 187.574219 216.449219 187.339844 216.484375 187.105469 216.519531 L 186.792969 216.558594 C 185.652344 216.714844 184.5 216.792969 183.347656 216.792969 C 181.898438 216.792969 180.449219 216.671875 179.019531 216.429688 C 178.785156 216.394531 178.550781 216.351562 178.320312 216.304688 C 176.390625 215.929688 174.5 215.339844 172.707031 214.535156 C 172.015625 214.226562 171.332031 213.875 170.675781 213.484375 C 170.457031 213.355469 170.238281 213.222656 170.03125 213.082031 C 168.175781 211.863281 166.59375 210.277344 165.769531 208.246094 C 165.457031 207.472656 165.285156 206.519531 165.796875 205.863281 C 166.238281 205.304688 167.019531 205.167969 167.730469 205.148438 C 167.820312 205.144531 167.90625 205.144531 168 205.144531 " fill-opacity="1" fill-rule="nonzero"/><path fill="#ffffff" d="M 139.382812 152.773438 C 139.082031 147.359375 159.726562 141.804688 185.488281 140.363281 C 211.253906 138.921875 232.386719 142.144531 232.6875 147.558594 C 232.988281 152.972656 212.347656 158.527344 186.582031 159.96875 C 160.816406 161.40625 139.6875 158.1875 139.382812 152.773438 " fill-opacity="1" fill-rule="nonzero"/><path fill="#9a6aec" d="M 229.414062 147.300781 C 229.472656 148.300781 228.242188 149.324219 225.976562 150.316406 C 219.457031 153.171875 204.351562 155.757812 186.65625 156.75 C 168.964844 157.738281 153.660156 156.851562 146.863281 154.738281 C 144.503906 154.003906 143.171875 153.125 143.113281 152.125 C 142.894531 148.238281 162.039062 144.007812 185.871094 142.675781 C 209.703125 141.34375 229.199219 143.414062 229.414062 147.300781 " fill-opacity="1" fill-rule="nonzero"/><path fill="#000000" d="M 225.976562 150.316406 C 219.457031 153.171875 204.351562 155.757812 186.65625 156.75 C 168.964844 157.738281 153.660156 156.851562 146.863281 154.738281 C 153.386719 151.882812 168.492188 149.296875 186.1875 148.304688 C 203.878906 147.320312 219.179688 148.203125 225.976562 150.316406 " fill-opacity="1" fill-rule="nonzero"/><path fill="#000000" d="M 186.347656 195.09375 C 186.347656 195 186.308594 194.910156 186.246094 194.84375 C 186.039062 194.621094 185.632812 194.789062 185.644531 195.09375 C 185.710938 196.640625 185.6875 197.980469 184.835938 198.820312 C 184.339844 199.25 183.46875 199.261719 182.867188 198.679688 C 182.292969 198.101562 182.105469 197.523438 181.863281 196.539062 C 181.660156 195.65625 181.65625 195.179688 181.574219 194.242188 C 181.414062 193.851562 180.824219 194.042969 180.898438 194.457031 C 180.988281 196.226562 181.316406 199.027344 183.242188 199.710938 C 184.023438 200.019531 184.953125 199.769531 185.507812 199.144531 C 186.179688 198.332031 186.351562 197.242188 186.371094 196.21875 C 186.382812 195.839844 186.363281 195.464844 186.347656 195.09375 " fill-opacity="1" fill-rule="nonzero"/><path fill="#000000" d="M 171.972656 205.789062 C 171.894531 206.261719 171.820312 206.738281 171.746094 207.214844 C 171.402344 209.304688 171.039062 211.394531 170.675781 213.484375 C 170.457031 213.355469 170.238281 213.222656 170.03125 213.082031 C 170.457031 210.589844 170.910156 208.101562 171.296875 205.605469 C 171.523438 205.664062 171.746094 205.722656 171.972656 205.789062 " fill-opacity="1" fill-rule="nonzero"/><path fill="#000000" d="M 179.550781 208.023438 C 179.492188 208.78125 179.421875 209.539062 179.390625 210.296875 C 179.246094 212.339844 179.125 214.382812 179.019531 216.429688 C 178.785156 216.394531 178.550781 216.351562 178.320312 216.304688 C 178.410156 214.574219 178.511719 212.84375 178.628906 211.113281 C 178.691406 210.03125 178.785156 208.949219 178.855469 207.867188 C 179.089844 207.921875 179.316406 207.976562 179.550781 208.023438 " fill-opacity="1" fill-rule="nonzero"/><path fill="#000000" d="M 187.804688 216.414062 C 187.574219 216.449219 187.339844 216.484375 187.105469 216.519531 C 186.824219 213.933594 186.617188 211.335938 186.375 208.746094 C 186.609375 208.746094 186.84375 208.734375 187.074219 208.722656 C 187.121094 209.226562 187.164062 209.726562 187.207031 210.230469 C 187.390625 212.292969 187.585938 214.355469 187.804688 216.414062 " fill-opacity="1" fill-rule="nonzero"/><path fill="#000000" d="M 197.414062 213.746094 C 197.199219 213.847656 196.984375 213.945312 196.761719 214.039062 C 196.398438 212.597656 196.03125 211.15625 195.675781 209.71875 C 195.433594 208.785156 195.222656 207.839844 194.96875 206.90625 C 195.195312 206.835938 195.421875 206.769531 195.644531 206.703125 C 195.789062 207.257812 195.921875 207.816406 196.066406 208.371094 C 196.511719 210.164062 196.960938 211.957031 197.414062 213.746094 " fill-opacity="1" fill-rule="nonzero"/><path fill="#fe94b4" d="M 165.140625 234.757812 C 164.253906 233.75 163.367188 232.695312 162.910156 231.429688 C 162.453125 230.164062 162.503906 228.632812 163.378906 227.609375 C 164.25 226.589844 166.054688 226.390625 166.910156 227.425781 C 167.589844 226.007812 168.292969 224.550781 169.453125 223.488281 C 170.613281 222.425781 172.347656 221.839844 173.789062 222.464844 C 174.757812 222.882812 175.433594 223.753906 176.070312 224.59375 C 176.820312 225.582031 177.570312 226.566406 178.316406 227.554688 C 180.203125 230.039062 182.105469 232.558594 183.316406 235.433594 C 184.523438 238.3125 184.984375 241.632812 183.902344 244.558594 C 182.324219 248.824219 177.296875 251.476562 172.890625 250.359375 C 171.832031 250.09375 170.789062 249.613281 170.070312 248.789062 C 169.398438 248.027344 169.058594 247.023438 168.917969 246.015625 C 168.453125 242.625 170.113281 239.328125 171.890625 236.40625 C 171.585938 235.832031 171.285156 235.261719 170.984375 234.6875 C 170.738281 235.894531 169.605469 236.855469 168.378906 236.902344 C 167.148438 236.941406 166.152344 235.914062 165.140625 234.757812 " fill-opacity="1" fill-rule="nonzero"/><path fill="#fe94b4" d="M 205.617188 229.886719 C 205.628906 231.792969 205.207031 233.703125 204.398438 235.433594 C 204 236.273438 203.738281 236.839844 203.304688 237.261719 C 202.867188 237.6875 202.226562 237.953125 201.640625 237.785156 C 201.144531 237.640625 200.78125 237.222656 200.324219 236.976562 C 200.046875 236.828125 199.671875 236.78125 199.386719 236.882812 C 199.207031 236.949219 199.0625 237.070312 199 237.261719 C 198.929688 237.484375 198.996094 237.726562 199.078125 237.945312 C 199.101562 238.007812 199.128906 238.070312 199.152344 238.132812 C 199.605469 239.234375 200.339844 240.203125 200.832031 241.289062 C 202.253906 244.441406 201.234375 248.558594 198.410156 250.554688 C 195.589844 252.546875 191.25 252.054688 189.0625 249.378906 C 188.371094 248.53125 187.894531 247.527344 187.527344 246.5 C 186.84375 244.597656 186.5 242.570312 186.519531 240.546875 C 186.566406 235.691406 188.652344 231.113281 190.78125 226.742188 C 191.097656 226.09375 191.421875 225.433594 191.914062 224.902344 C 192.828125 223.90625 194.28125 223.472656 195.609375 223.71875 C 196.9375 223.964844 198.109375 224.855469 198.78125 226.03125 C 199.089844 226.570312 199.371094 227.230469 199.972656 227.386719 C 200.878906 227.621094 201.542969 226.539062 202.40625 226.179688 C 203.300781 225.808594 204.378906 226.308594 204.929688 227.101562 C 205.484375 227.898438 205.613281 228.914062 205.617188 229.886719 " fill-opacity="1" fill-rule="nonzero"/><path fill="#000000" d="M 247.195312 146.832031 C 246.398438 145.222656 245.175781 143.808594 243.546875 143.019531 C 242.765625 142.65625 241.925781 142.417969 241.074219 142.308594 C 240.800781 142.3125 240.460938 142.148438 240.230469 142.351562 C 240.011719 142.5625 240.175781 142.964844 240.480469 142.957031 C 242.851562 143.074219 245.035156 144.375 246.203125 146.492188 C 246.339844 146.722656 246.464844 146.953125 246.585938 147.1875 C 246.632812 147.265625 246.710938 147.328125 246.796875 147.351562 C 247.089844 147.441406 247.359375 147.089844 247.195312 146.832031 " fill-opacity="1" fill-rule="nonzero"/><path fill="#000000" d="M 243.90625 131.414062 C 243.8125 131.417969 243.722656 131.375 243.65625 131.3125 C 243.441406 131.117188 243.21875 130.925781 242.996094 130.738281 C 240.792969 128.890625 237.828125 127.234375 234.90625 127.300781 C 234.746094 127.308594 234.636719 127.210938 234.589844 127.085938 C 235.019531 127.007812 235.472656 126.972656 235.9375 126.929688 C 235.996094 126.835938 236.050781 126.742188 236.109375 126.640625 C 236.914062 126.738281 237.710938 126.972656 238.460938 127.242188 C 240.59375 128.011719 242.488281 129.292969 244.15625 130.8125 C 244.378906 131.019531 244.207031 131.425781 243.90625 131.414062 " fill-opacity="1" fill-rule="nonzero"/><path fill="#000000" d="M 249.625 129.644531 C 249.324219 129.632812 249.210938 129.277344 249.015625 129.09375 C 248.164062 128.035156 247.210938 126.988281 246.285156 126.355469 C 244.527344 125.113281 242.855469 124.269531 240.933594 123.6875 C 241.363281 123.71875 241.804688 123.800781 242.253906 123.9375 C 242.347656 123.78125 242.453125 123.636719 242.574219 123.503906 C 243.554688 123.902344 244.5 124.402344 245.40625 124.933594 C 246.242188 125.445312 247.0625 126.003906 247.78125 126.675781 C 248.554688 127.394531 249.210938 128.222656 249.875 129.042969 C 250.097656 129.25 249.925781 129.65625 249.625 129.644531 " fill-opacity="1" fill-rule="nonzero"/><path fill="#000000" d="M 123.871094 127.398438 C 123.773438 127.488281 123.652344 127.5625 123.5625 127.648438 C 122.0625 128.808594 120.378906 130.777344 119.429688 131.988281 C 117.574219 134.265625 116.734375 136.640625 116.339844 139.558594 C 116.285156 139.777344 116.328125 140.046875 116.171875 140.222656 C 116.015625 140.386719 115.730469 140.351562 115.617188 140.15625 C 115.570312 140.074219 115.558594 139.972656 115.585938 139.882812 C 115.648438 139.441406 115.714844 139 115.789062 138.5625 C 116.171875 136.171875 117.066406 133.867188 118.574219 131.957031 C 119.71875 130.453125 120.957031 129.015625 122.359375 127.75 C 122.441406 127.941406 122.480469 128.152344 122.460938 128.367188 C 122.867188 127.960938 123.347656 127.636719 123.871094 127.398438 " fill-opacity="1" fill-rule="nonzero"/><path fill="#000000" d="M 131.441406 129.976562 C 131.34375 129.984375 131.242188 129.996094 131.148438 130.027344 C 129.679688 130.320312 128.433594 130.992188 127.394531 131.890625 C 126.535156 132.621094 125.792969 133.476562 125.039062 134.3125 C 123.875 135.496094 122.816406 137.117188 122.246094 138.492188 C 122.039062 138.992188 121.890625 139.511719 121.746094 140.03125 C 121.671875 140.222656 121.671875 140.460938 121.53125 140.621094 C 121.410156 140.738281 121.203125 140.761719 121.070312 140.648438 C 120.773438 140.410156 121.054688 140.011719 121.101562 139.714844 C 121.300781 138.96875 121.5625 138.238281 121.90625 137.546875 C 122.734375 135.785156 124.03125 134.332031 125.34375 132.921875 C 126.671875 131.390625 128.335938 130.085938 130.269531 129.507812 C 130.347656 129.632812 130.414062 129.761719 130.472656 129.890625 C 130.796875 129.867188 131.125 129.894531 131.441406 129.976562 " fill-opacity="1" fill-rule="nonzero"/><path fill="#000000" d="M 131.253906 144.496094 C 130.105469 144.996094 128.136719 145.386719 126.800781 146.242188 C 125.453125 147.082031 124.167969 148.132812 123.363281 149.527344 C 123.242188 149.734375 123.128906 149.949219 123.019531 150.167969 C 122.972656 150.25 122.960938 150.347656 122.984375 150.4375 C 123.042969 150.65625 123.3125 150.765625 123.503906 150.648438 C 123.734375 150.457031 123.832031 150.054688 124.015625 149.800781 C 125.035156 148.195312 126.523438 147.058594 128.46875 146.199219 C 128.683594 146.097656 129.96875 145.679688 130.542969 145.511719 C 130.929688 145.363281 131.390625 145.289062 131.707031 145.015625 C 131.953125 144.730469 131.570312 144.296875 131.253906 144.496094 " fill-opacity="1" fill-rule="nonzero"/><path fill="#000000" d="M 191.429688 244.488281 C 191.414062 244.488281 191.398438 244.492188 191.378906 244.496094 C 190.933594 244.613281 190.488281 244.738281 190.042969 244.851562 C 189.519531 244.992188 188.992188 245.109375 188.464844 245.226562 C 188.433594 245.234375 188.410156 245.238281 188.390625 245.246094 C 188.230469 244.738281 188.089844 244.199219 187.988281 243.664062 C 187.972656 243.589844 187.960938 243.527344 187.949219 243.464844 C 188.582031 243.316406 189.214844 243.164062 189.847656 243.019531 C 190.199219 242.933594 190.554688 242.859375 190.90625 242.777344 C 190.949219 242.972656 190.996094 243.171875 191.050781 243.367188 C 191.160156 243.726562 191.289062 244.101562 191.429688 244.488281 Z M 192.179688 246.5 C 191.964844 246.546875 191.757812 246.644531 191.542969 246.6875 C 190.789062 246.886719 190.039062 247.105469 189.289062 247.324219 C 189.171875 247.113281 189.0625 246.902344 188.957031 246.695312 C 188.839844 246.457031 188.726562 246.1875 188.617188 245.902344 C 189.472656 245.742188 190.308594 245.511719 191.148438 245.289062 C 191.316406 245.230469 191.5 245.199219 191.675781 245.152344 C 191.847656 245.605469 192.019531 246.054688 192.179688 246.5 Z M 192.410156 247.15625 C 192.542969 247.566406 192.660156 247.960938 192.738281 248.328125 C 192.726562 248.332031 192.714844 248.328125 192.703125 248.335938 C 191.941406 248.597656 190.925781 248.804688 190.335938 248.914062 C 190.101562 248.621094 189.871094 248.292969 189.65625 247.945312 C 190.570312 247.675781 191.511719 247.460938 192.410156 247.15625 Z M 191.179688 249.757812 C 191.089844 249.6875 190.996094 249.609375 190.902344 249.527344 C 191.320312 249.445312 191.734375 249.332031 192.152344 249.234375 C 192.347656 249.164062 192.621094 249.128906 192.839844 249.035156 C 192.902344 250.1875 192.191406 250.46875 191.179688 249.757812 Z M 192.328125 233.730469 C 193.140625 231.367188 194.363281 229.117188 194.707031 226.617188 C 194.800781 225.894531 194.75 225.058594 194.269531 224.472656 C 193.8125 223.972656 193.039062 223.992188 192.519531 224.390625 C 192.332031 224.519531 192.183594 224.691406 192.039062 224.863281 C 191.972656 224.929688 191.933594 225.019531 191.933594 225.113281 C 191.921875 225.421875 192.328125 225.582031 192.535156 225.363281 C 193.300781 224.429688 193.882812 224.695312 194.011719 225.652344 C 193.488281 225.644531 192.960938 225.636719 192.433594 225.648438 C 192.128906 225.617188 191.808594 225.730469 191.882812 226.097656 C 191.988281 226.460938 192.417969 226.335938 192.699219 226.347656 C 193.144531 226.347656 193.585938 226.351562 194.03125 226.359375 C 194.027344 226.378906 194.027344 226.398438 194.027344 226.421875 C 193.988281 226.792969 193.910156 227.1875 193.808594 227.597656 C 193.082031 227.5625 192.359375 227.535156 191.636719 227.515625 C 191.496094 227.523438 191.339844 227.476562 191.210938 227.539062 C 190.980469 227.617188 190.925781 227.949219 191.097656 228.109375 C 191.304688 228.292969 191.613281 228.191406 191.871094 228.226562 C 192.449219 228.242188 193.03125 228.265625 193.613281 228.296875 C 193.460938 228.792969 193.28125 229.308594 193.085938 229.828125 C 192.4375 229.78125 191.785156 229.757812 191.132812 229.726562 C 190.816406 229.730469 190.480469 229.628906 190.175781 229.703125 C 189.910156 229.792969 189.890625 230.195312 190.132812 230.328125 C 190.734375 230.464844 191.378906 230.421875 192 230.46875 C 192.269531 230.460938 192.546875 230.503906 192.820312 230.523438 C 192.613281 231.050781 192.398438 231.582031 192.195312 232.09375 C 191.457031 232.046875 190.71875 232.011719 189.976562 231.972656 C 189.667969 231.992188 189.179688 231.777344 189.015625 232.148438 C 188.90625 232.363281 189.097656 232.644531 189.339844 232.636719 C 190.074219 232.695312 190.808594 232.714844 191.546875 232.753906 C 191.667969 232.753906 191.796875 232.769531 191.925781 232.785156 C 191.871094 232.925781 191.820312 233.066406 191.769531 233.203125 C 191.574219 233.703125 191.414062 234.210938 191.28125 234.726562 C 190.273438 234.726562 189.25 234.640625 188.253906 234.710938 C 187.988281 234.804688 187.96875 235.207031 188.214844 235.335938 C 188.449219 235.4375 188.726562 235.375 188.976562 235.394531 C 189.691406 235.402344 190.402344 235.417969 191.117188 235.425781 C 191.003906 235.960938 190.914062 236.5 190.847656 237.042969 C 189.886719 237.136719 188.929688 237.269531 187.972656 237.382812 C 187.828125 237.414062 187.65625 237.386719 187.539062 237.488281 C 187.335938 237.621094 187.363281 237.953125 187.574219 238.066406 C 187.894531 238.175781 187.789062 238.082031 188.097656 238.070312 C 188.625 238.007812 189.148438 237.945312 189.671875 237.878906 C 190.039062 237.835938 190.40625 237.792969 190.773438 237.753906 C 190.722656 238.320312 190.6875 238.890625 190.664062 239.457031 C 190.65625 239.460938 190.644531 239.460938 190.632812 239.464844 C 189.722656 239.601562 188.820312 239.796875 187.910156 239.960938 C 187.703125 240.027344 187.445312 239.992188 187.261719 240.117188 C 187.117188 240.214844 187.085938 240.425781 187.171875 240.574219 C 187.394531 240.914062 187.851562 240.648438 188.171875 240.628906 C 188.859375 240.5 189.542969 240.359375 190.230469 240.242188 C 190.363281 240.207031 190.507812 240.203125 190.644531 240.179688 C 190.644531 240.8125 190.679688 241.449219 190.773438 242.078125 C 190.667969 242.101562 190.5625 242.140625 190.457031 242.15625 C 189.601562 242.375 188.710938 242.523438 187.863281 242.765625 C 187.847656 242.601562 187.824219 242.425781 187.78125 242.191406 C 187.691406 241.925781 187.289062 241.90625 187.15625 242.148438 C 187.0625 242.316406 187.140625 242.511719 187.144531 242.691406 C 187.1875 243.078125 187.238281 243.464844 187.304688 243.84375 C 187.511719 244.90625 187.832031 245.941406 188.285156 246.921875 C 188.992188 248.363281 190.800781 251.535156 192.738281 250.703125 C 194.570312 249.828125 192.765625 246.195312 192.289062 244.796875 C 191.808594 243.5625 191.441406 242.324219 191.386719 241.234375 C 191.304688 240.25 191.375 239.261719 191.441406 238.277344 C 191.53125 236.660156 191.765625 235.367188 192.328125 233.730469 " fill-opacity="1" fill-rule="nonzero"/><path fill="#000000" d="M 182.144531 235.535156 C 181.210938 232.871094 179.574219 230.519531 177.945312 228.238281 C 177.105469 227.078125 176.257812 225.921875 175.378906 224.789062 C 174.863281 224.179688 174.394531 223.492188 173.78125 222.984375 C 173.445312 222.824219 173.121094 223.296875 173.394531 223.554688 C 174.648438 224.890625 175.433594 226.015625 176.523438 227.46875 C 177.5 228.800781 178.46875 230.132812 179.332031 231.542969 C 182.253906 235.75 183.207031 241.097656 181.210938 245.515625 C 180.726562 246.539062 179.914062 247.734375 179.371094 248.128906 C 178.988281 248.410156 178.59375 248.671875 178.1875 248.925781 C 178.058594 249.007812 177.902344 249.074219 177.863281 249.238281 C 177.773438 249.527344 178.121094 249.800781 178.382812 249.636719 C 178.839844 249.355469 179.292969 249.054688 179.726562 248.738281 C 180.273438 248.339844 180.671875 247.785156 181.046875 247.234375 C 183.300781 243.808594 183.4375 239.34375 182.144531 235.535156 " fill-opacity="1" fill-rule="nonzero"/><path fill="#000000" d="M 175.609375 232.707031 C 174.542969 233.121094 173.605469 233.8125 172.769531 234.589844 C 172.539062 234.8125 172.332031 235.054688 172.128906 235.300781 C 172.046875 235.414062 171.929688 235.515625 171.9375 235.667969 C 171.929688 235.894531 172.164062 236.070312 172.382812 236.007812 C 172.53125 235.972656 172.601562 235.824219 172.695312 235.71875 C 172.890625 235.480469 173.097656 235.242188 173.328125 235.03125 C 174 234.433594 174.460938 234.042969 175.355469 233.589844 C 175.488281 233.527344 175.621094 233.460938 175.753906 233.402344 C 175.855469 233.371094 175.957031 233.320312 176.007812 233.222656 C 176.171875 232.964844 175.902344 232.613281 175.609375 232.707031 " fill-opacity="1" fill-rule="nonzero"/><path fill="#000000" d="M 170.601562 233.332031 C 170.558594 233.179688 170.421875 233.089844 170.324219 232.972656 C 169.914062 232.535156 169.511719 232.085938 169.101562 231.644531 C 168.566406 231.039062 168.195312 230.570312 167.785156 229.722656 C 167.550781 229.328125 166.949219 229.683594 167.175781 230.082031 C 167.625 231.050781 168.335938 231.871094 169.0625 232.640625 C 169.375 232.988281 169.691406 233.332031 170.015625 233.675781 C 170.082031 233.738281 170.171875 233.777344 170.265625 233.777344 C 170.492188 233.785156 170.664062 233.546875 170.601562 233.332031 " fill-opacity="1" fill-rule="nonzero"/><path fill="#000000" d="M 201.992188 227.21875 C 201.78125 226.910156 201.265625 227.167969 201.375 227.527344 C 201.585938 228.789062 201.425781 230.503906 201 231.914062 C 200.941406 232.21875 200.6875 232.667969 200.691406 232.921875 C 200.707031 233.167969 201.011719 233.308594 201.214844 233.179688 C 201.34375 233.109375 201.378906 232.96875 201.429688 232.84375 C 201.925781 231.566406 202.140625 230.191406 202.167969 228.828125 C 202.15625 228.324219 202.199219 227.675781 201.992188 227.21875 " fill-opacity="1" fill-rule="nonzero"/><path fill="#000000" d="M 199.078125 237.945312 C 199.101562 238.007812 199.128906 238.070312 199.152344 238.132812 C 199.011719 238.039062 198.964844 237.824219 198.898438 237.667969 C 198.625 236.929688 198.453125 236.15625 198.34375 235.378906 C 198.179688 234.300781 198.285156 233.203125 198.457031 232.132812 C 198.527344 231.839844 198.957031 231.785156 199.101562 232.050781 C 199.148438 232.128906 199.160156 232.230469 199.136719 232.320312 C 199.066406 232.746094 199.070312 232.738281 199.023438 233.207031 C 198.890625 234.539062 199.007812 235.648438 199.386719 236.882812 C 199.207031 236.949219 199.0625 237.070312 199 237.261719 C 198.929688 237.484375 198.996094 237.726562 199.078125 237.945312 " fill-opacity="1" fill-rule="nonzero"/><path fill="#ffffff" d="M 144.585938 180.058594 C 143.691406 174.546875 143.1875 168.972656 143.082031 163.390625 C 143.0625 162.433594 143.359375 161.140625 144.316406 161.144531 C 144.886719 161.144531 145.320312 161.664062 145.554688 162.183594 C 145.890625 162.925781 146.007812 163.738281 146.125 164.542969 C 146.433594 166.699219 146.742188 168.855469 147.050781 171.007812 C 147.484375 174.050781 147.921875 177.105469 147.894531 180.175781 C 147.886719 181.035156 147.707031 182.089844 146.894531 182.367188 C 146.292969 182.574219 145.613281 182.195312 145.265625 181.65625 C 144.921875 181.117188 144.660156 180.523438 144.585938 180.058594 " fill-opacity="1" fill-rule="nonzero"/><path fill="#ffffff" d="M 146.296875 189.09375 C 146.089844 188.507812 145.882812 187.910156 145.84375 187.289062 C 145.804688 186.667969 145.960938 186.003906 146.390625 185.554688 C 146.820312 185.109375 147.570312 184.941406 148.089844 185.277344 C 148.375 185.464844 148.5625 185.769531 148.714844 186.074219 C 149.238281 187.113281 149.5 188.285156 149.460938 189.449219 C 149.445312 189.914062 149.375 190.398438 149.121094 190.789062 C 148.863281 191.179688 148.375 191.449219 147.925781 191.324219 C 147.578125 191.230469 147.324219 190.9375 147.128906 190.632812 C 146.828125 190.164062 146.503906 189.6875 146.296875 189.09375 " fill-opacity="1" fill-rule="nonzero"/><g clip-path="url(#id4)"><path fill="#ffffff" d="M 87.3125 180.425781 L 88.503906 184.292969 L 92.078125 182.402344 L 90.1875 185.980469 L 94.050781 187.175781 L 90.1875 188.367188 L 92.078125 191.949219 L 88.503906 190.054688 L 87.3125 193.921875 L 86.121094 190.054688 L 82.546875 191.949219 L 84.4375 188.367188 L 80.574219 187.175781 L 84.4375 185.980469 L 82.546875 182.402344 L 86.121094 184.292969 L 87.3125 180.425781 " fill-opacity="1" fill-rule="evenodd"/></g><g clip-path="url(#id5)"><path fill="#ffffff" d="M 283.785156 180.425781 L 284.976562 184.292969 L 288.546875 182.402344 L 286.660156 185.980469 L 290.519531 187.175781 L 286.660156 188.367188 L 288.546875 191.949219 L 284.976562 190.054688 L 283.785156 193.921875 L 282.59375 190.054688 L 279.019531 191.949219 L 280.90625 188.367188 L 277.046875 187.175781 L 280.90625 185.980469 L 279.019531 182.402344 L 282.59375 184.292969 L 283.785156 180.425781 " fill-opacity="1" fill-rule="evenodd"/></g></svg>